<?xml version="1.0" encoding="utf-8"?>
<!-- Generator: Adobe Illustrator 26.2.1, SVG Export Plug-In . SVG Version: 6.00 Build 0)  -->
<svg version="1.1" id="Layer_1" xmlns="http://www.w3.org/2000/svg" xmlns:xlink="http://www.w3.org/1999/xlink" x="0px" y="0px"
	 viewBox="0 0 1125 2436" style="enable-background:new 0 0 1125 2436;" xml:space="preserve">
<style type="text/css">
	.st0{fill:#DCC077;}
	.st1{fill:none;}
	.st2{fill:#FFFFFF;stroke:#1E1E1D;stroke-width:2.0928;stroke-miterlimit:10;}
	.st3{fill:#DFDFDF;}
	.st4{fill:#999999;}
	.st5{fill:#3A3A39;}
</style>
<rect x="2.1" y="132.7" class="st0" width="3115.1" height="2237.3"/>
<line class="st1" x1="161.3" y1="134.1" x2="349.3" y2="130.1"/>
<g>
	<rect x="73.8" y="157.6" class="st2" width="538.6" height="617.4"/>
	<rect x="110.9" y="191" class="st3" width="464.5" height="457.5"/>
	<g>
		<path class="st4" d="M165.3,116.4c-0.1,0-0.1-0.1-0.2-0.1c0,0,0,0,0,0c-0.1,0-0.1-0.1-0.2-0.1c0,0-0.1,0-0.1,0
			c-0.1,0-0.1,0-0.2-0.1c0,0-0.1,0-0.1,0c-0.1,0-0.1,0-0.2,0c0,0-0.1,0-0.1,0c-0.1,0-0.1,0-0.2,0c0,0-0.1,0-0.1,0s-0.1,0-0.2,0
			c0,0-0.1,0-0.1,0c-0.1,0-0.1,0-0.2,0c0,0-0.1,0-0.1,0c-0.1,0-0.2,0-0.3,0c0,0-0.1,0-0.1,0c-0.1,0-0.2,0-0.4,0.1c0,0-0.1,0-0.1,0
			c-0.1,0-0.2,0-0.3,0.1c0,0-0.1,0-0.1,0c-0.1,0-0.2,0-0.3,0.1c-0.1,0-0.1,0-0.2,0.1c-0.1,0-0.2,0.1-0.3,0.1c-0.1,0-0.1,0-0.2,0.1
			c-0.1,0-0.2,0.1-0.3,0.1c-0.1,0-0.1,0-0.2,0.1c-0.1,0-0.2,0.1-0.3,0.1c-0.1,0-0.1,0.1-0.2,0.1c-0.1,0.1-0.2,0.1-0.3,0.2
			c-0.1,0-0.1,0.1-0.2,0.1c-0.2,0.1-0.3,0.2-0.5,0.3c-4.3,2.5-6.6,5.4-7.8,7.4c-1,1.8-1.6,3.6-1.6,5c0,1.1,0,2.3,0,3.5h3.7
			c0-0.5,0-0.9,0-1.4c0-1.4,0.6-3.2,1.6-5c1.2-2,3.4-4.9,7.8-7.4c1.6-0.9,3-1.4,4.1-1.5C166.4,117.4,166,116.8,165.3,116.4z"/>
		<path class="st4" d="M153,150.8L153,150.8c0.1,0.1,0.1,0.1,0.1,0.1c0,0,0,0,0,0.1c0,0,0,0.1,0,0.1c0,0,0,0,0,0.1c0,0,0,0.1,0,0.1
			s0,0,0,0.1c0,0,0,0.1,0,0.1c0,0,0,0,0,0.1s0,0.1,0,0.1c0,0,0,0,0,0.1c0,0.1,0,0.1,0,0.2c0,0.1-0.1,5.2-0.2,12.3
			c-0.1,13.1-0.1,33,0.6,41.3c0,0.1,0,0.2,0,0.2l0,0c0,0.1,0,0.2,0,0.3l0,0c0,0.1,0,0.2,0,0.3l0,0c0,0.1,0,0.2,0.1,0.3c0,0,0,0,0,0
			c0,0.1,0.1,0.2,0.1,0.3c0,0,0,0,0,0c0,0.1,0.1,0.2,0.1,0.2c0,0,0,0,0,0c0.1,0.1,0.1,0.1,0.2,0.2c0,0,0,0,0,0
			c0.1,0.1,0.1,0.1,0.2,0.2c0.5,0.3,1.4,0.4,2.7-0.1c-0.8-8.3-0.7-28.1-0.6-41.1c0.1-7,0.2-12.1,0.2-12.3c0-0.6-0.2-1-0.5-1.2
			l-3.6-2.2c0,0,0,0,0.1,0c0,0,0,0,0.1,0C152.9,150.7,153,150.8,153,150.8z"/>
		<path class="st4" d="M174.5,156c0-3.8-0.1-7.6-0.1-11.3c-0.1-5.2-0.1-10.2-0.2-14.9c0-3.9-0.1-7.5-0.1-10.7c0-2-0.8-4-2.5-5
			l-3.6-2.2c0,0,0,0,0,0c0,0,0.1,0.1,0.1,0.1c0.1,0,0.1,0.1,0.2,0.1c0,0,0.1,0.1,0.1,0.1c0.1,0,0.1,0.1,0.2,0.1c0,0,0.1,0.1,0.1,0.1
			c0,0,0.1,0.1,0.1,0.1c0,0,0.1,0.1,0.1,0.1c0,0,0.1,0.1,0.1,0.1c0,0,0.1,0.1,0.1,0.1c0,0,0.1,0.1,0.1,0.2c0,0,0.1,0.1,0.1,0.1
			c0,0.1,0.1,0.1,0.1,0.2c0,0,0.1,0.1,0.1,0.1c0,0.1,0.1,0.1,0.1,0.2c0,0,0.1,0.1,0.1,0.1c0,0.1,0.1,0.1,0.1,0.2c0,0,0,0.1,0.1,0.1
			c0,0.1,0,0.1,0.1,0.2c0,0.1,0,0.1,0.1,0.2c0,0.1,0,0.1,0.1,0.2c0,0.1,0,0.1,0,0.2c0,0.1,0,0.1,0.1,0.2c0,0.1,0,0.1,0,0.2
			s0,0.1,0,0.2c0,0.1,0,0.1,0,0.2s0,0.1,0,0.2c0,0,0,0.1,0,0.1c0,0.1,0,0.2,0,0.2c0,0,0,0.1,0,0.1c0,0.1,0,0.2,0,0.4
			c0,3.2,0,6.8,0.1,10.7c0,4.6,0.1,9.7,0.2,14.9c0,3.7,0.1,7.5,0.1,11.3c0.2,13.1,0.3,26.4,0,36.2c-0.1,5-2.6,15.6-10.8,20.2
			c-0.1,0-0.2,0.1-0.2,0.1c-0.2,0.1-0.4,0.2-0.6,0.3c0,0-0.1,0.1-0.1,0.1c-0.2,0.1-0.4,0.2-0.6,0.3c0,0,0,0,0,0
			c-0.2,0.1-0.3,0.2-0.5,0.2c0,0-0.1,0-0.1,0.1c-0.2,0.1-0.3,0.1-0.5,0.2c0,0,0,0-0.1,0c-0.2,0.1-0.3,0.1-0.5,0.2c0,0-0.1,0-0.1,0
			c-0.2,0.1-0.3,0.1-0.5,0.1c0,0,0,0-0.1,0c-0.1,0-0.3,0.1-0.4,0.1c0,0-0.1,0-0.1,0c-0.1,0-0.3,0.1-0.4,0.1c0,0-0.1,0-0.1,0
			c-0.1,0-0.2,0-0.3,0c0,0-0.1,0-0.1,0c-0.1,0-0.2,0-0.4,0c0,0,0,0-0.1,0c-0.1,0-0.2,0-0.3,0c0,0,0,0-0.1,0c-0.1,0-0.2,0-0.3,0
			c0,0,0,0-0.1,0c-0.1,0-0.2,0-0.3-0.1h0c-0.1,0-0.2-0.1-0.3-0.1c0,0,0,0-0.1,0c-0.1,0-0.2-0.1-0.2-0.1h0c-0.1,0-0.2-0.1-0.2-0.1h0
			l3.6,2.2c1.4,0.8,3.8,0.7,7.7-1.5c0.1,0,0.2-0.1,0.2-0.1c8.2-4.7,10.6-15.3,10.8-20.2C174.7,182.3,174.6,169,174.5,156z"/>
		<path class="st5" d="M152.4,212.1c0.1,0,0.2,0.1,0.2,0.1c0,0,0,0,0.1,0c0.1,0,0.2,0.1,0.3,0.1h0c0.1,0,0.2,0,0.3,0.1
			c0,0,0,0,0.1,0c0.1,0,0.2,0,0.3,0c0,0,0,0,0.1,0c0.1,0,0.2,0,0.3,0c0,0,0,0,0.1,0c0.1,0,0.2,0,0.4,0c0,0,0.1,0,0.1,0
			c0.1,0,0.2,0,0.3,0c0,0,0.1,0,0.1,0c0.1,0,0.3,0,0.4-0.1c0,0,0.1,0,0.1,0c0.1,0,0.3-0.1,0.4-0.1c0,0,0,0,0.1,0
			c0.1,0,0.3-0.1,0.5-0.1c0,0,0.1,0,0.1,0c0.1,0,0.3-0.1,0.5-0.2c0,0,0,0,0.1,0c0.2-0.1,0.3-0.1,0.5-0.2c0,0,0.1,0,0.1-0.1
			c0.2-0.1,0.3-0.2,0.5-0.2c0,0,0,0,0,0c0.2-0.1,0.4-0.2,0.6-0.3c0,0,0.1,0,0.1-0.1c0.2-0.1,0.4-0.2,0.6-0.3c0.1,0,0.2-0.1,0.2-0.1
			c8.2-4.7,10.6-15.3,10.8-20.2c0.3-9.9,0.2-23.2,0-36.2c0-3.8-0.1-7.6-0.1-11.3c-0.1-5.2-0.1-10.2-0.2-14.9c0-3.9-0.1-7.5-0.1-10.7
			c0-0.1,0-0.2,0-0.4c0,0,0-0.1,0-0.1s0-0.2,0-0.2c0,0,0-0.1,0-0.1c0-0.1,0-0.1,0-0.2c0-0.1,0-0.1,0-0.2s0-0.1,0-0.2
			c0-0.1,0-0.1,0-0.2s0-0.1-0.1-0.2c0-0.1,0-0.1,0-0.2c0-0.1,0-0.1-0.1-0.2c0-0.1,0-0.1-0.1-0.2c0-0.1,0-0.1-0.1-0.2
			c0-0.1,0-0.1-0.1-0.1c0-0.1-0.1-0.1-0.1-0.2c0,0,0-0.1-0.1-0.1c0-0.1-0.1-0.1-0.1-0.2c0,0-0.1-0.1-0.1-0.1c0-0.1-0.1-0.1-0.1-0.2
			c0,0-0.1-0.1-0.1-0.1c0-0.1-0.1-0.1-0.1-0.2c0,0-0.1-0.1-0.1-0.1c0,0-0.1-0.1-0.1-0.1c0,0-0.1-0.1-0.1-0.1s-0.1-0.1-0.1-0.1
			c0,0-0.1-0.1-0.1-0.1c0,0-0.1-0.1-0.2-0.1c0,0-0.1-0.1-0.1-0.1c-0.1,0-0.1-0.1-0.2-0.1c0,0-0.1-0.1-0.1-0.1
			c-1.9-1.2-4.9-1.1-9.1,1.3c-5.5,3.1-8.7,7.2-10.3,10c-1.7,3-2.7,6.1-2.7,8.6c0,0.4,0,0.8,0,1.4h3.7c0-1.2,0-2.4,0-3.5
			c0-1.4,0.6-3.2,1.6-5c1.2-2,3.4-4.9,7.8-7.4c0.2-0.1,0.3-0.2,0.5-0.3c0.1,0,0.1-0.1,0.2-0.1c0.1-0.1,0.2-0.1,0.3-0.2
			c0.1,0,0.1-0.1,0.2-0.1c0.1,0,0.2-0.1,0.3-0.1c0.1,0,0.1-0.1,0.2-0.1c0.1,0,0.2-0.1,0.3-0.1c0.1,0,0.1,0,0.2-0.1
			c0.1,0,0.2-0.1,0.3-0.1c0.1,0,0.1,0,0.2-0.1c0.1,0,0.2,0,0.3-0.1c0,0,0.1,0,0.1,0c0.1,0,0.2,0,0.3-0.1c0,0,0.1,0,0.1,0
			c0.1,0,0.2,0,0.4-0.1c0,0,0.1,0,0.1,0c0.1,0,0.2,0,0.3,0c0,0,0.1,0,0.1,0s0.1,0,0.2,0c0,0,0.1,0,0.1,0c0.1,0,0.1,0,0.2,0
			c0,0,0.1,0,0.1,0c0.1,0,0.1,0,0.2,0c0,0,0.1,0,0.1,0c0.1,0,0.1,0,0.2,0c0,0,0.1,0,0.1,0c0.1,0,0.1,0,0.2,0.1c0,0,0.1,0,0.1,0
			c0.1,0,0.1,0.1,0.2,0.1c0,0,0,0,0,0c0.1,0,0.1,0.1,0.2,0.1c0.7,0.4,1.1,1,1.3,1.7c0.1,0.3,0.1,0.6,0.1,1c0,3.2,0,6.8,0.1,10.6
			c0,4.7,0.1,9.7,0.2,15c0,3.7,0.1,7.5,0.2,11.3c0.2,13,0.2,26.3,0,36.1c0,0.1-0.3,10-7.3,14.2c-1,0.6-1.8,0.9-2.4,1.2
			c-1.4,0.5-2.2,0.4-2.7,0.1c-0.1,0-0.2-0.1-0.2-0.2c0,0,0,0,0,0c-0.1-0.1-0.1-0.1-0.2-0.2c0,0,0,0,0,0c-0.1-0.1-0.1-0.2-0.1-0.2
			c0,0,0,0,0,0c0-0.1-0.1-0.2-0.1-0.3c0,0,0,0,0,0c0-0.1-0.1-0.2-0.1-0.3l0,0c0-0.1,0-0.2,0-0.3l0,0c0-0.1,0-0.2,0-0.3l0,0
			c0-0.1,0-0.2,0-0.2c-0.8-8.2-0.8-28.2-0.6-41.3c0.1-7,0.2-12.1,0.2-12.3c0-0.1,0-0.1,0-0.2c0,0,0,0,0-0.1c0,0,0-0.1,0-0.1
			c0,0,0,0,0-0.1c0,0,0-0.1,0-0.1c0,0,0,0,0-0.1c0,0,0-0.1,0-0.1c0,0,0,0,0-0.1c0,0,0-0.1,0-0.1c0,0,0,0,0-0.1c0,0,0,0,0-0.1l0,0
			c0,0,0,0-0.1-0.1c0,0,0,0-0.1,0c-0.3-0.2-0.8-0.2-1.4,0.1c-0.7,0.4-1.3,1.2-1.6,2l-0.1,13.3c-0.1,15.7-0.2,39.8,0,40.4
			c0.2,0.5,0.2,1.6,0.4,2.4c0.3,1.1,0.8,1.9,0.9,2c0.3,0.4,0.7,0.8,1.1,1.1C152.2,212,152.3,212,152.4,212.1
			C152.4,212,152.4,212,152.4,212.1z"/>
		<polygon class="st0" points="145.9,133.3 136.6,133.3 136.6,145.8 159.3,145.8 159.3,133.3 153.2,133.3 149.5,133.3 		"/>
	</g>
</g>
</svg>
