<?xml version="1.0" encoding="utf-8"?>
<!-- Generator: Adobe Illustrator 26.2.1, SVG Export Plug-In . SVG Version: 6.00 Build 0)  -->
<svg version="1.1" id="Layer_1" xmlns="http://www.w3.org/2000/svg" xmlns:xlink="http://www.w3.org/1999/xlink" x="0px" y="0px"
	 viewBox="0 0 14400 14400" style="enable-background:new 0 0 14400 14400;" xml:space="preserve">
<style type="text/css">
	.st0{fill:#999999;}
	.st1{fill:#FFFFFF;stroke:#000000;stroke-width:0.8714;stroke-miterlimit:10;}
	.st2{clip-path:url(#SVGID_00000159451451553665090220000010028837929918071739_);}
	.st3{fill:#DCC077;}
	.st4{fill:#FFFFFF;stroke:#1E1E1D;stroke-width:2.2847;stroke-miterlimit:10;}
	.st5{fill:#DFDFDF;}
	.st6{fill:none;}
	.st7{fill:#070706;}
	.st8{clip-path:url(#SVGID_00000098903247393249333780000005741139928364957322_);}
	.st9{fill:#3A3A39;}
</style>
<g>
	<path class="st0" d="M5006.8,6912.5"/>
</g>
<circle class="st1" cx="5729.7" cy="6315.4" r="307.2"/>
<g>
	<defs>
		<path id="SVGID_1_" d="M7177.5,7519.5h-540c-6.6,0-12-5.4-12-12v-627c0-6.6,5.4-12,12-12h540c6.6,0,12,5.4,12,12v627
			C7189.5,7514.1,7184.1,7519.5,7177.5,7519.5z"/>
	</defs>
	<clipPath id="SVGID_00000147180868512643520450000015454846929166800063_">
		<use xlink:href="#SVGID_1_"  style="overflow:visible;"/>
	</clipPath>
	<g style="clip-path:url(#SVGID_00000147180868512643520450000015454846929166800063_);">
		<rect x="6586.4" y="6824.1" class="st3" width="1186.2" height="729"/>
		<rect x="6608.9" y="6851.1" class="st4" width="588" height="674.1"/>
		<rect x="6649.3" y="6887.6" class="st5" width="507.1" height="499.5"/>
		<line class="st6" x1="6648.7" y1="6824.7" x2="6720.2" y2="6823.2"/>
		<rect x="6659.9" y="6896.2" class="st7" width="484.9" height="477.7"/>
		<g>
			<defs>
				<rect id="SVGID_00000096740485101479035940000006642297244910879384_" x="6659.9" y="6892.9" width="484.9" height="477.7"/>
			</defs>
			<clipPath id="SVGID_00000168084218646035741280000002180225233237568646_">
				<use xlink:href="#SVGID_00000096740485101479035940000006642297244910879384_"  style="overflow:visible;"/>
			</clipPath>
			<g id="vUk9Dm.tif" style="clip-path:url(#SVGID_00000168084218646035741280000002180225233237568646_);">
				
					<image style="overflow:visible;" width="1202" height="846" id="Layer_0_00000092419474972267420520000015608011236387473560_" xlink:href="A6C587F9E166EC81.png"  transform="matrix(0.5704 0 0 0.5704 6531.6426 6890.8677)">
				</image>
			</g>
		</g>
		<g>
			<path class="st0" d="M6708.7,6806.1c-0.1,0-0.2-0.1-0.3-0.1c0,0,0,0,0,0c-0.1,0-0.2-0.1-0.2-0.1c0,0-0.1,0-0.1,0
				c-0.1,0-0.1,0-0.2-0.1c0,0-0.1,0-0.1,0c-0.1,0-0.1,0-0.2,0c0,0-0.1,0-0.1,0c-0.1,0-0.1,0-0.2,0c0,0-0.1,0-0.1,0
				c-0.1,0-0.1,0-0.2,0c0,0-0.1,0-0.1,0c-0.1,0-0.2,0-0.2,0c0,0-0.1,0-0.1,0c-0.1,0-0.2,0-0.3,0c0,0-0.1,0-0.1,0
				c-0.1,0-0.3,0-0.4,0.1c0,0-0.1,0-0.1,0c-0.1,0-0.2,0-0.3,0.1c-0.1,0-0.1,0-0.2,0c-0.1,0-0.2,0.1-0.3,0.1c-0.1,0-0.1,0-0.2,0.1
				c-0.1,0-0.2,0.1-0.3,0.1c-0.1,0-0.1,0-0.2,0.1c-0.1,0-0.2,0.1-0.3,0.1c-0.1,0-0.1,0.1-0.2,0.1c-0.1,0-0.2,0.1-0.3,0.1
				c-0.1,0-0.1,0.1-0.2,0.1c-0.1,0.1-0.2,0.1-0.4,0.2c-0.1,0-0.1,0.1-0.2,0.1c-0.2,0.1-0.4,0.2-0.6,0.3c-4.7,2.7-7.2,5.9-8.5,8
				c-1.1,1.9-1.8,3.9-1.7,5.4c0,1.2,0,2.5,0,3.8h3.9c0-0.5,0-1,0-1.5c0-1.5,0.6-3.5,1.7-5.4c1.3-2.2,3.8-5.3,8.5-8
				c1.8-1,3.2-1.5,4.4-1.6C6709.9,6807.2,6709.4,6806.5,6708.7,6806.1z"/>
			<path class="st0" d="M6695.3,6843.7C6695.3,6843.7,6695.3,6843.7,6695.3,6843.7c0.1,0.1,0.1,0.1,0.1,0.1c0,0,0,0,0,0.1
				c0,0,0,0.1,0,0.1c0,0,0,0,0,0.1c0,0,0,0.1,0,0.1c0,0,0,0,0,0.1c0,0,0,0.1,0,0.1c0,0,0,0.1,0,0.1c0,0,0,0.1,0,0.1c0,0,0,0.1,0,0.1
				c0,0.1,0,0.2,0,0.2c0,0.2-0.1,5.7-0.2,13.4c-0.1,14.3-0.2,36.1,0.7,45.1c0,0.1,0,0.2,0,0.3c0,0,0,0,0,0c0,0.1,0,0.2,0,0.3
				c0,0,0,0,0,0c0,0.1,0,0.2,0.1,0.3c0,0,0,0,0,0c0,0.1,0.1,0.2,0.1,0.3c0,0,0,0,0,0c0,0.1,0.1,0.2,0.1,0.3c0,0,0,0,0,0
				c0,0.1,0.1,0.2,0.2,0.3c0,0,0,0,0,0c0.1,0.1,0.1,0.2,0.2,0.2c0,0,0,0,0,0c0.1,0.1,0.2,0.1,0.3,0.2c0.6,0.3,1.5,0.4,3-0.1
				c-0.8-9.1-0.8-30.7-0.7-44.9c0.1-7.7,0.2-13.2,0.2-13.4c0-0.6-0.2-1.1-0.6-1.3l-4-2.4c0,0,0,0,0.1,0
				C6695.2,6843.6,6695.2,6843.6,6695.3,6843.7C6695.2,6843.6,6695.2,6843.6,6695.3,6843.7z"/>
			<path class="st0" d="M6718.7,6849.3c-0.1-4.2-0.1-8.3-0.2-12.4c-0.1-5.7-0.2-11.2-0.2-16.2c0-4.2-0.1-8.2-0.1-11.6
				c0-2.2-0.9-4.4-2.7-5.5l-4-2.4c0,0,0,0,0,0c0.1,0,0.1,0.1,0.2,0.1c0.1,0,0.1,0.1,0.2,0.1c0,0,0.1,0.1,0.1,0.1
				c0.1,0,0.1,0.1,0.2,0.1c0,0,0.1,0.1,0.1,0.1c0.1,0.1,0.1,0.1,0.2,0.2c0,0,0.1,0.1,0.1,0.1c0,0.1,0.1,0.1,0.1,0.2
				c0,0,0.1,0.1,0.1,0.1c0,0.1,0.1,0.1,0.1,0.2c0,0,0.1,0.1,0.1,0.2c0,0.1,0.1,0.1,0.1,0.2c0,0.1,0.1,0.1,0.1,0.2
				c0,0.1,0.1,0.1,0.1,0.2c0,0.1,0.1,0.1,0.1,0.2c0,0.1,0.1,0.1,0.1,0.2c0,0.1,0.1,0.1,0.1,0.2c0,0.1,0.1,0.1,0.1,0.2
				c0,0.1,0,0.1,0.1,0.2c0,0.1,0,0.1,0.1,0.2c0,0.1,0,0.1,0.1,0.2c0,0.1,0,0.2,0.1,0.2c0,0.1,0,0.1,0,0.2c0,0.1,0,0.2,0,0.2
				c0,0.1,0,0.1,0,0.2c0,0.1,0,0.2,0,0.3c0,0.1,0,0.1,0,0.2c0,0.1,0,0.2,0,0.3c0,0,0,0.1,0,0.1c0,0.1,0,0.3,0,0.4
				c0,3.5,0,7.4,0.1,11.6c0.1,5.1,0.1,10.6,0.2,16.2c0.1,4,0.1,8.2,0.2,12.4c0.2,14.3,0.3,28.8,0,39.6c-0.2,5.4-2.8,17-11.7,22.1
				c-0.1,0.1-0.2,0.1-0.3,0.2c-0.2,0.1-0.5,0.3-0.7,0.4c-0.1,0-0.1,0.1-0.2,0.1c-0.2,0.1-0.4,0.2-0.7,0.3c0,0,0,0,0,0
				c-0.2,0.1-0.4,0.2-0.6,0.3c0,0-0.1,0-0.1,0.1c-0.2,0.1-0.4,0.2-0.6,0.2c0,0,0,0-0.1,0c-0.2,0.1-0.3,0.1-0.5,0.2c0,0-0.1,0-0.1,0
				c-0.2,0.1-0.4,0.1-0.5,0.2c0,0-0.1,0-0.1,0c-0.1,0-0.3,0.1-0.4,0.1c0,0-0.1,0-0.1,0c-0.2,0-0.3,0.1-0.5,0.1c0,0-0.1,0-0.1,0
				c-0.1,0-0.3,0-0.4,0c0,0-0.1,0-0.1,0c-0.1,0-0.3,0-0.4,0c0,0-0.1,0-0.1,0c-0.1,0-0.2,0-0.3,0c0,0,0,0-0.1,0c-0.1,0-0.2,0-0.4,0
				c0,0-0.1,0-0.1,0c-0.1,0-0.2,0-0.3-0.1c0,0,0,0-0.1,0c-0.1,0-0.2-0.1-0.3-0.1c0,0,0,0-0.1,0c-0.1,0-0.2-0.1-0.3-0.1c0,0,0,0,0,0
				c-0.1,0-0.2-0.1-0.3-0.1c0,0,0,0,0,0l4,2.4c1.6,0.9,4.2,0.8,8.4-1.6c0.1-0.1,0.2-0.1,0.3-0.2c8.9-5.1,11.6-16.7,11.7-22.1
				C6719,6878.1,6718.9,6863.6,6718.7,6849.3z"/>
			<path class="st9" d="M6694.6,6910.6c0.1,0,0.2,0.1,0.3,0.1c0,0,0,0,0.1,0c0.1,0,0.2,0.1,0.3,0.1c0,0,0,0,0.1,0
				c0.1,0,0.2,0,0.3,0.1c0,0,0.1,0,0.1,0c0.1,0,0.2,0,0.4,0c0,0,0,0,0.1,0c0.1,0,0.2,0,0.3,0c0,0,0.1,0,0.1,0c0.1,0,0.3,0,0.4,0
				c0,0,0.1,0,0.1,0c0.1,0,0.3,0,0.4,0c0,0,0.1,0,0.1,0c0.2,0,0.3-0.1,0.5-0.1c0,0,0.1,0,0.1,0c0.1,0,0.3-0.1,0.4-0.1
				c0,0,0.1,0,0.1,0c0.2,0,0.3-0.1,0.5-0.2c0,0,0.1,0,0.1,0c0.2-0.1,0.3-0.1,0.5-0.2c0,0,0,0,0.1,0c0.2-0.1,0.4-0.2,0.6-0.2
				c0,0,0.1,0,0.1-0.1c0.2-0.1,0.4-0.2,0.6-0.3c0,0,0,0,0,0c0.2-0.1,0.4-0.2,0.7-0.3c0.1,0,0.1-0.1,0.2-0.1c0.2-0.1,0.5-0.2,0.7-0.4
				c0.1-0.1,0.2-0.1,0.3-0.2c8.9-5.1,11.6-16.7,11.7-22.1c0.3-10.8,0.2-25.3,0-39.6c-0.1-4.2-0.1-8.3-0.2-12.4
				c-0.1-5.7-0.2-11.2-0.2-16.2c0-4.2-0.1-8.2-0.1-11.6c0-0.1,0-0.3,0-0.4c0,0,0-0.1,0-0.1c0-0.1,0-0.2,0-0.3c0-0.1,0-0.1,0-0.2
				c0-0.1,0-0.2,0-0.3c0-0.1,0-0.1,0-0.2c0-0.1,0-0.2,0-0.2c0-0.1,0-0.1,0-0.2c0-0.1,0-0.2-0.1-0.2c0-0.1,0-0.1-0.1-0.2
				c0-0.1,0-0.1-0.1-0.2c0-0.1,0-0.1-0.1-0.2c0-0.1-0.1-0.1-0.1-0.2c0-0.1,0-0.1-0.1-0.2c0-0.1-0.1-0.1-0.1-0.2
				c0-0.1-0.1-0.1-0.1-0.2c0-0.1-0.1-0.1-0.1-0.2c0-0.1-0.1-0.1-0.1-0.2c0-0.1-0.1-0.1-0.1-0.2c0-0.1-0.1-0.1-0.1-0.2
				c0-0.1-0.1-0.1-0.1-0.2c0,0-0.1-0.1-0.1-0.1c0-0.1-0.1-0.1-0.1-0.2c0,0-0.1-0.1-0.1-0.1c-0.1-0.1-0.1-0.1-0.2-0.2
				c0,0-0.1-0.1-0.1-0.1c-0.1,0-0.1-0.1-0.2-0.1c0,0-0.1-0.1-0.1-0.1c-0.1,0-0.1-0.1-0.2-0.1c-0.1,0-0.1-0.1-0.2-0.1
				c-2.1-1.2-5.3-1.2-10,1.4c-6,3.4-9.4,7.9-11.2,11c-1.9,3.2-2.9,6.6-2.9,9.4c0,0.4,0,0.9,0,1.5h4.1c0-1.3,0-2.6,0-3.8
				c0-1.5,0.6-3.5,1.7-5.4c1.3-2.2,3.7-5.3,8.5-8c0.2-0.1,0.4-0.2,0.6-0.3c0.1,0,0.1-0.1,0.2-0.1c0.1-0.1,0.3-0.1,0.4-0.2
				c0.1,0,0.1-0.1,0.2-0.1c0.1-0.1,0.2-0.1,0.3-0.1c0.1,0,0.1-0.1,0.2-0.1c0.1,0,0.2-0.1,0.3-0.1c0.1,0,0.1-0.1,0.2-0.1
				c0.1,0,0.2-0.1,0.3-0.1c0.1,0,0.1,0,0.2-0.1c0.1,0,0.2-0.1,0.3-0.1c0.1,0,0.1,0,0.2,0c0.1,0,0.2-0.1,0.3-0.1c0,0,0.1,0,0.1,0
				c0.1,0,0.3,0,0.4-0.1c0,0,0.1,0,0.1,0c0.1,0,0.2,0,0.3,0c0,0,0.1,0,0.1,0c0.1,0,0.2,0,0.2,0c0,0,0.1,0,0.1,0c0.1,0,0.1,0,0.2,0
				c0,0,0.1,0,0.1,0c0.1,0,0.1,0,0.2,0c0,0,0.1,0,0.1,0c0.1,0,0.1,0,0.2,0c0,0,0.1,0,0.1,0c0.1,0,0.1,0,0.2,0.1c0,0,0.1,0,0.1,0
				c0.1,0,0.2,0.1,0.2,0.1c0,0,0,0,0,0c0.1,0,0.2,0.1,0.3,0.1c0.7,0.4,1.2,1.1,1.4,1.9c0.1,0.3,0.1,0.7,0.1,1.1
				c0,3.5,0,7.4,0.1,11.6c0.1,5.1,0.1,10.6,0.2,16.3c0.1,4,0.1,8.2,0.2,12.3c0.2,14.2,0.3,28.7,0,39.4c0,0.1-0.4,10.9-7.9,15.5
				c-1.1,0.6-1.9,1-2.7,1.3c-1.5,0.5-2.4,0.4-3,0.1c-0.1-0.1-0.2-0.1-0.3-0.2c0,0,0,0,0,0c-0.1-0.1-0.1-0.1-0.2-0.2c0,0,0,0,0,0
				c-0.1-0.1-0.1-0.2-0.2-0.3c0,0,0,0,0,0c0-0.1-0.1-0.2-0.1-0.3c0,0,0,0,0,0c0-0.1-0.1-0.2-0.1-0.3c0,0,0,0,0,0
				c0-0.1,0-0.2-0.1-0.3c0,0,0,0,0,0c0-0.1,0-0.2,0-0.3c0,0,0,0,0,0c0-0.1,0-0.2,0-0.3c-0.9-9-0.8-30.8-0.7-45.1
				c0.1-7.7,0.2-13.2,0.2-13.4c0-0.1,0-0.2,0-0.2c0,0,0-0.1,0-0.1c0,0,0-0.1,0-0.1c0,0,0-0.1,0-0.1c0,0,0-0.1,0-0.1c0,0,0,0,0-0.1
				c0,0,0-0.1,0-0.1c0,0,0,0,0-0.1c0,0,0-0.1,0-0.1c0,0,0,0,0-0.1c0,0,0-0.1-0.1-0.1c0,0,0,0-0.1-0.1c0,0,0,0-0.1-0.1c0,0,0,0-0.1,0
				c-0.4-0.3-0.9-0.3-1.6,0.1c-0.7,0.4-1.4,1.3-1.7,2.2l-0.1,14.5c-0.1,17.1-0.2,43.4,0,44.1c0.2,0.5,0.2,1.7,0.4,2.7
				c0.3,1.2,0.9,2.1,1,2.2c0.3,0.5,0.7,0.9,1.2,1.2C6694.4,6910.5,6694.5,6910.5,6694.6,6910.6
				C6694.6,6910.6,6694.6,6910.6,6694.6,6910.6z"/>
			<polygon class="st3" points="6687.5,6824.5 6677.4,6824.5 6677.4,6838.2 6702.2,6838.2 6702.2,6824.5 6695.5,6824.5 
				6691.5,6824.5 			"/>
		</g>
	</g>
</g>
</svg>
