<?xml version="1.0" encoding="utf-8"?>
<!-- Generator: Adobe Illustrator 26.2.1, SVG Export Plug-In . SVG Version: 6.00 Build 0)  -->
<svg version="1.1" id="Layer_1" xmlns="http://www.w3.org/2000/svg" xmlns:xlink="http://www.w3.org/1999/xlink" x="0px" y="0px"
	 viewBox="0 0 1293 1125" style="enable-background:new 0 0 1293 1125;" xml:space="preserve">
<style type="text/css">
	.st0{fill:#809354;}
</style>
<path class="st0" d="M647.9,141.1c-238.8,0-433.1,194.3-433.1,433.1s194.3,433.1,433.1,433.1s433.1-194.3,433.1-433.1
	S886.7,141.1,647.9,141.1z M647.9,936.7c-199.9,0-362.5-162.6-362.5-362.5S448,211.7,647.9,211.7s362.5,162.6,362.5,362.5
	S847.8,936.7,647.9,936.7z"/>
<path class="st0" d="M647.9,280.5c-162.2,0-293.7,131.5-293.7,293.7s131.5,293.7,293.7,293.7s293.7-131.5,293.7-293.7
	S810.1,280.5,647.9,280.5z M802.4,609.5H683.2v119.3c0,19.5-15.8,35.3-35.3,35.3s-35.3-15.8-35.3-35.3V609.5H493.3
	c-19.5,0-35.3-15.8-35.3-35.3s15.8-35.3,35.3-35.3h119.3V419.7c0-19.5,15.8-35.3,35.3-35.3s35.3,15.8,35.3,35.3v119.3h119.3
	c19.5,0,35.3,15.8,35.3,35.3S821.9,609.5,802.4,609.5z"/>
</svg>
