<?xml version="1.0" encoding="utf-8"?>
<!-- Generator: Adobe Illustrator 26.2.1, SVG Export Plug-In . SVG Version: 6.00 Build 0)  -->
<svg version="1.1" id="Layer_1" xmlns="http://www.w3.org/2000/svg" xmlns:xlink="http://www.w3.org/1999/xlink" x="0px" y="0px"
	 viewBox="0 0 3987.2 3708" style="enable-background:new 0 0 3987.2 3708;" xml:space="preserve">
<style type="text/css">
	.st0{fill:#0A0A08;}
	.st1{fill:#809354;}
</style>
<g>
	<path class="st0" d="M613.7,1140.4h2740.2c174.4,0,316.2-141.8,316.2-316.2S3528.3,508,3353.9,508H613.7
		c-174.4,0-316.2,141.8-316.2,316.2S439.3,1140.4,613.7,1140.4z"/>
	<path class="st0" d="M3353.9,1561.9H613.7c-174.4,0-316.2,141.8-316.2,316.2s141.8,316.2,316.2,316.2h2740.2
		c174.4,0,316.2-141.8,316.2-316.2S3528.3,1561.9,3353.9,1561.9z"/>
	<path class="st0" d="M3353.9,2615.9H613.7c-174.4,0-316.2,141.8-316.2,316.2s141.8,316.2,316.2,316.2h2740.2
		c174.4,0,316.2-141.8,316.2-316.2S3528.3,2615.9,3353.9,2615.9z"/>
</g>
<g>
	<path d="M5393.6,172.7V37.1c0-35.3-28.6-64-64-64c-35.3,0-64,28.6-64,64v135.6c-228-28.9-409.2-210.1-438.1-438.1h135.6
		c35.3,0,64-28.6,64-64c0-35.3-28.6-64-64-64h-135.6c28.9-228,210.1-409.2,438.1-438.1v135.6c0,35.3,28.6,64,64,64
		c35.3,0,64-28.6,64-64v-135.5c228,28.9,409.2,210.1,438.1,438.1h-135.6c-35.3,0-64,28.6-64,64c0,35.3,28.7,64,64,64h135.6
		C5802.7-37.4,5621.5,143.8,5393.6,172.7L5393.6,172.7z M5329.6-963.4c-350.2,0-634.1,283.9-634.1,634.1s283.9,634.1,634.1,634.1
		c350.2,0,634.1-283.9,634.1-634.1C5963.6-679.5,5679.8-963.4,5329.6-963.4L5329.6-963.4z"/>
	<path d="M5329.6-387.5c32.1,0,58.2,26.1,58.2,58.2s-26.1,58.2-58.2,58.2c-32.1,0-58.2-26.1-58.2-58.2
		C5271.4-361.5,5297.5-387.5,5329.6-387.5L5329.6-387.5z M5235.9-433l-2.7,5.8L5065-66.7l352.6-156.4l5.6-2.5l3-5.4l191.3-334.9
		L5241.9-435L5235.9-433L5235.9-433z"/>
	
		<ellipse transform="matrix(9.242819e-02 -0.9957 0.9957 9.242819e-02 5183.0513 6257.4155)" cx="6024.1" cy="285.5" rx="226.5" ry="114.7"/>
	<path d="M7576.5,1463.1H5754.4c-6.6,0-12-5.4-12-12V416.6c0-6.6,5.4-12,12-12h1822.1c6.6,0,12,5.4,12,12v1034.5
		C7588.5,1457.7,7583.1,1463.1,7576.5,1463.1z"/>
	<path d="M7551.4,751h-967.9c-6.6,0-12-5.4-12-12v-963.5c0-6.6,5.4-12,12-12h967.9c6.6,0,12,5.4,12,12V739
		C7563.4,745.6,7558,751,7551.4,751z"/>
	<path d="M7817.9,1513.5h-732.5c-6.6,0-12-5.4-12-12V447.7c0-6.6,5.4-12,12-12h732.5c6.6,0,12,5.4,12,12v1053.8
		C7829.9,1508.1,7824.5,1513.5,7817.9,1513.5z"/>
	<path d="M6292.9,1719.3h-732.5c-6.6,0-12-5.4-12-12V653.5c0-6.6,5.4-12,12-12h732.5c6.6,0,12,5.4,12,12v1053.8
		C6304.9,1713.9,6299.5,1719.3,6292.9,1719.3z"/>
	<path class="st1" d="M7756.4,724.1c-90.5,169.7-218.4,371.4-383.6,603.2c10.5,12.6,17.9,27.2,20.9,43.1
		c12.2,61.8-48.2,120.3-134.7,136.3c-86.6,15.9-161.2-18.3-166.8-80.8c-0.2-2.7-0.2-5.5-0.2-8.3
		c-183.5-76.3-349.3-145.8-497.5-224.1c-220.2,104.5-450.4,201.4-690.4,247c-28.2,51.1-95.4,88.4-163.8,80.8
		c-80.6-8.8-127.4-76.3-104.6-139.8c14.7-41.8,53.9-72,99.4-86c104.8-229.9,203.3-462.4,295.5-696.8c-23.4-92.8-41.3-188.3-53.8-286
		c-49.9-13.3-69.3-77.7-43.7-138.4c26.3-62.2,84.8-99.6,130.5-90.7c45.8,9.1,66.8,63.5,47.1,128.1c-5.4,17.1-13.4,33-23.2,47.1
		c15.7,99.9,37.6,197.3,65.9,291.6c3.6,12.1,3,26.5-1.9,41c-82.1,242.6-170.8,484.2-266,723.9c250.8-41.6,490.2-144.7,717.9-255.8
		c23.6-11.5,47.8-12.7,65.3-3.4c152,81.4,323.4,155.6,514.2,240.5c12.4-5.8,25.8-10.2,39.8-13.3c150.1-214.5,271-409.4,362.7-580.4
		c-262.4-63.9-511.8-48.3-748.3-29.3c-19.8,23.8-46.8,42.6-76.5,51.2c-64.8,18.7-114.7-18.3-111.5-82.3
		c3.3-64,53.2-129.7,111.5-147.2c6-1.8,11.9-2.8,17.7-3.5c116-176.6,211.7-348.3,286.9-509c6.7-14.5,17.6-24.7,30.3-28.3
		c80.6-23.1,160.4-39.3,239.6-44.1c5.5-32.5,25.2-53.9,55.6-50.7c45.7,4.4,102.3,64.9,126.5,128.4c24.1,63.6,1.2,104.2-51.1,98.1
		c-30.8-3.7-63.5-22.7-88.4-50.4c-77.3,3.1-155.3,16.6-233.8,36.6c-71.1,146.7-160.1,304.1-266.9,468
		c252.1-17.8,520.2-27,804.2,75.2c23.4,8.4,46.8,27.6,62.2,49.9C7758.8,687.7,7764,709.9,7756.4,724.1L7756.4,724.1z M8432.7,1612.7
		c-273.2-602.8-546.4-1205.6-819.6-1808.3c-39.4-85.7-111.1-178.7-160-196.3C6997-560,6541-75.3,6084.9-227.6
		c-35,260.8-202.4,480.3-432.1,588.3c-188.1,368-376.2,736-564.3,1104c-39.4,74.6,19.1,198,130.8,249.4
		c1027.5,476.2,2055.1-536.4,3082.6-60.2C8413.6,1705.4,8472.1,1698.6,8432.7,1612.7L8432.7,1612.7z"/>
</g>
</svg>
