<?xml version="1.0" encoding="utf-8"?>
<!-- Generator: Adobe Illustrator 26.2.1, SVG Export Plug-In . SVG Version: 6.00 Build 0)  -->
<svg version="1.1" id="Layer_1" xmlns="http://www.w3.org/2000/svg" xmlns:xlink="http://www.w3.org/1999/xlink" x="0px" y="0px"
	 viewBox="0 0 300 300" style="enable-background:new 0 0 300 300;" xml:space="preserve">
<style type="text/css">
	.st0{fill:#809354;}
	.st1{fill:#4C4C4C;}
	.st2{fill-rule:evenodd;clip-rule:evenodd;fill:#9EA791;}
	.st3{fill-rule:evenodd;clip-rule:evenodd;fill:#BC6957;}
	.st4{fill-rule:evenodd;clip-rule:evenodd;fill:#8E9683;}
	.st5{fill-rule:evenodd;clip-rule:evenodd;fill:#4C4C4C;}
	.st6{fill-rule:evenodd;clip-rule:evenodd;fill:#C6C6B0;}
	.st7{fill-rule:evenodd;clip-rule:evenodd;fill:#AAAD96;}
	.st8{fill-rule:evenodd;clip-rule:evenodd;fill:#DADAC5;}
	.st9{fill-rule:evenodd;clip-rule:evenodd;fill:#C1C7AC;}
	.st10{fill-rule:evenodd;clip-rule:evenodd;fill:#5F5F5F;}
	.st11{fill:#BC6957;}
	.st12{fill:#DFCD4F;}
</style>
<rect x="78.3" y="53.9" class="st0" width="155.2" height="235.1"/>
<g>
	<g>
		<g>
			<path class="st1" d="M241,296.2H71.1V47.7h49.2v17.9h71.4V47.7H241V296.2z M78.3,289h155.4V54.8h-34.8v17.9h-85.8V54.8H78.3V289z
				"/>
		</g>
	</g>
	<g>
		<g>
			<path class="st1" d="M198.9,72.8h-85.8v-43h85.8V72.8z M120.3,65.6h71.4V37h-71.4V65.6z"/>
		</g>
	</g>
	<g>
		<g>
			<path class="st1" d="M188.2,33.4H181c0-13.7-11.2-24.9-24.9-24.9c-13.7,0-24.9,11.2-24.9,24.9h-7.2c0-17.7,14.4-32.1,32.1-32.1
				C173.8,1.3,188.2,15.7,188.2,33.4z"/>
		</g>
	</g>
</g>
<g>
	<g>
		<g>
			<path class="st1" d="M199.6,227.9h-70.8c-1.2,0-2.2-1.9-2.2-4.2c0-2.3,1-4.2,2.2-4.2h70.8c1.2,0,2.2,1.9,2.2,4.2
				C201.8,226,200.8,227.9,199.6,227.9z"/>
		</g>
	</g>
	<g>
		<g>
			<path class="st1" d="M199.6,251.9h-70.8c-1.2,0-2.2-1.9-2.2-4.2c0-2.3,1-4.2,2.2-4.2h70.8c1.2,0,2.2,1.9,2.2,4.2
				C201.8,250.1,200.8,251.9,199.6,251.9z"/>
		</g>
	</g>
	<g>
		<g>
			<path class="st1" d="M199.6,276h-70.8c-1.2,0-2.2-1.9-2.2-4.2c0-2.3,1-4.2,2.2-4.2h70.8c1.2,0,2.2,1.9,2.2,4.2
				C201.8,274.1,200.8,276,199.6,276z"/>
		</g>
	</g>
</g>
<path class="st2" d="M-303.1,65.5c-0.7,10.3-3.5,11-4.2,21.3c-0.3,4.2,1.2,12.2,4.9,14.1c9.6,4.9,19.8,5.1,29.5,5.2
	C-283,92.5-293,79-303.1,65.5L-303.1,65.5z M-145.6,65.5c0.7,10.3,3.5,11,4.2,21.3c0.3,4.2-1.2,12.2-4.9,14.1
	c-9.6,4.9-19.8,5.1-29.5,5.2C-165.8,92.5-155.7,79-145.6,65.5L-145.6,65.5z"/>
<path class="st3" d="M-265,53.6c1,4.5,1.6,9.4,1.6,14.7c0,19.7-7.9,35.6-17.5,35.6c-9.7,0-17.5-15.9-17.5-35.6
	C-298.5,45.2-282.7,53.6-265,53.6L-265,53.6z"/>
<path class="st3" d="M-184.4,53.6c-1,4.5-1.6,9.4-1.6,14.7c0,19.7,7.9,35.6,17.5,35.6c9.7,0,17.5-15.9,17.5-35.6
	C-150.9,45.2-166.8,53.6-184.4,53.6L-184.4,53.6z"/>
<path class="st3" d="M-183.2,88.5c-1.4,26.2-2.7,52.4-4.1,78.7c-0.6,11.6-17,24.1-36.4,23.9c-18.9-0.2-37.6-13-38.2-24
	c-1.4-26.2-2.7-52.4-4.1-78.6C-238.3,88.5-210.7,88.5-183.2,88.5L-183.2,88.5z"/>
<path class="st3" d="M-166.3,8.8c3.6,12.6,5.7,26.6,5.7,41.3c0,10.9-1.1,21.4-3.1,31.3c-3.6,17.9-7.7,37.1-16.7,49
	c-22,29.1-66.5,27.7-88.1-0.9c-8.8-11.6-13.1-29.4-16.8-46.8c-2.2-10.2-3.3-21.1-3.3-32.5c0-14.7,2-28.7,5.7-41.3H-166.3L-166.3,8.8
	z"/>
<path class="st4" d="M-224.2,152.1c-16.7-0.3-33.4-7.8-44.3-22.2c-8.8-11.7-13.1-29.6-16.9-47c-2.2-10.3-3.4-21.3-3.4-32.7
	c0-0.7,0-1.3,0-2l2.6,0.8c0.8,6.2,1.6,12.4,2.4,18.5c5.9,16.7,8.2,32.3,12.4,43.7c2.8,7.7,10.6,15.7,19.1,15.3
	c18.3-0.8,37.6-0.8,55.9,0c8.5,0.4,16.3-7.6,19.1-15.3c4.2-11.4,6.5-27,12.4-43.7c0.8-6.2,1.6-12.4,2.4-18.5l2.6-0.8
	c0,0.7,0,1.3,0,2c0,11.4-1.2,22.5-3.4,32.7c-3.7,17.5-8.1,35.4-16.9,47C-190.8,144.3-207.5,151.9-224.2,152.1L-224.2,152.1z
	 M-254.2,140.3c7.8,4.9,20.3,8.6,30,9.1c9.6-0.5,22.2-4.2,30-9.1C-215.3,138.5-233.2,138.5-254.2,140.3L-254.2,140.3z"/>
<path class="st5" d="M-251.3,60.3c19.5,0,34.4,0,53.8,0c17.1,0,35.8-0.3,35.8,7.7c0,15.7-33,27.6-47.8,24.9c-5.4-1-8.2-4.8-11.3-7.4
	c-2.5-2.2-4.2-2.8-6.9-0.5c-0.2,0.2-0.4,0.3-0.6,0.5c-3,2.6-5.9,6.4-11.3,7.4c-14.7,2.7-47.8-9.2-47.8-24.9
	C-287.1,59.9-268.4,60.3-251.3,60.3L-251.3,60.3z"/>
<path class="st6" d="M-224.4,60.6h-45.3c-15.2,0-21.6,5.3-25.4,23.6c-5.1,24.1-12.9,18-13.5-1.7c-0.2-7.7,1.8-18.1,3.9-24.6
	c1.7-5.5,4.1-7.6,5.2-12.2c2.6-11.3,4-21,7.2-34c7.4-29.8,24.2-51.3,68-51.2c43.8-0.1,60.5,21.4,68,51.2c3.2,13,4.6,22.7,7.2,34
	c1.1,4.6,3.4,6.7,5.2,12.2c2.1,6.5,4.1,16.8,3.9,24.6c-0.6,19.8-8.4,25.9-13.5,1.7c-3.8-18.3-10.2-23.6-25.4-23.6H-224.4
	L-224.4,60.6z"/>
<path class="st7" d="M-224.4,60.6h-45.3c-5.6,0-10,0.7-13.5,2.5c-1-4.5,0.2-10.9,7.4-15c4.4-2.5,4.7,4.1,19.7-12.2
	c5.3-5.7,23.5-6.3,15.5,1.7c-13.2,13.2-4,7.7,0,13.3c0.7,1,12.3-1.2,12.5,0.6c2.6,0.5,4.9,2.8,12.4,2.8c0.1,0,3.2,2.6,6.7,6.1
	H-224.4L-224.4,60.6z M-293.3,15.9c0.3-1.3,0.6-2.7,1-4.1c1.4-5.8,3.2-11.2,5.5-16.2l1-0.2c1.8-0.3,17.1-17.6,18.4-11.2
	c1.1,5.3,2,0,5.5,1.1c-1.5,12.8-14.3,21.4-25.4,26.7C-289,12.9-291.1,14.3-293.3,15.9L-293.3,15.9z M-176.9-25.1
	c5.8,5,10.3,11,13.7,18c-3.4,11.5-11.7-2.4-24.2,1.2c-11.9,3.5,0.4,7-14.8,3.5c-26.8-6.2-13.1,8.3-20,9c-13,1.3-12.9,0.8-24.3,9
	c-7.4,5.4-0.6,0.8-10.1,3.9c-22.8,7.5-13.4-3.1-9.8-3.6c16.2-2,13.6-10.3,28.6-16.9c0.1-0.1,6.6-4.2,1.4-4
	c-15.4,0.6,1.9-8.5,8.7-8.4c6.7,0.1,14.7-9.7,14.6-11.5c-0.4-9.9,18.3-4.8,23.7-2.1C-184.8-24.6-180.5-24.5-176.9-25.1L-176.9-25.1z
	 M-156,13.5c2.9,12.1,4.3,21.5,6.8,32.3c1.1,4.6,3.4,6.7,5.2,12.2c0.1,0.5,0.3,0.9,0.4,1.4c-6.1,2.6-12.1,3.8-15.8,2.2
	c-12.3-5.3-0.4-10.5-27.5-16c-7.4-1.5-11.4-7.1-5.9-10.8c12.4-8.5-5.8-3.5-4.1-8.4c11-2.6,6.5-7.7,28.2-8.4
	C-164.7,17.8-161.4,14.2-156,13.5L-156,13.5z"/>
<path class="st8" d="M-285,35.5c1.3-6.5,2.4-12.8,4.4-20.6c6.2-24.7,20-42.4,56.3-42.3c36.3-0.1,50.1,17.7,56.3,42.3
	c1.9,7.8,3.1,14.1,4.4,20.6c-20.2,1.1-40.3,1.6-60.6,1.5C-244.6,37.1-264.8,36.6-285,35.5L-285,35.5z M-296.4,53.2
	c1.2-3.3,4.8-4.8,8.3-4.7c20.9,0.7,42.4,1,63.7,1c20.5,0,40.7-0.3,61.6-0.9c3.7-0.1,9,0.8,10.3,4.6c11.9,34.2,9.1,16.9-4.7,6.2
	c-6.4-5-18-4.1-26.7-4h-40.6H-265c-14.4,0-24.5,1.5-30.9,7C-301.9,67.5-304.9,77.5-296.4,53.2L-296.4,53.2z"/>
<path class="st9" d="M-278.3,7.1c2.8-8,6.7-15,12.3-20.6c0.8-0.3,2-1.9,4.1-1.2C-262.9-5.3-270.2,1.9-278.3,7.1L-278.3,7.1z
	 M-212.9-26.8c18.3,2.2,29.5,10.1,36.6,21.4c-3.2-1.1-6.9-1.8-11.1-0.6c-11.9,3.5,0.4,7-14.8,3.5c-26.8-6.2-13.1,8.3-20,9
	c-13,1.3-12.9,0.8-24.3,9c-7.4,5.4-0.6,0.8-10.1,3.9c-22.8,7.5-13.4-3.1-9.8-3.6c16.2-2,13.6-10.3,28.6-16.9c0.1-0.1,6.6-4.2,1.4-4
	c-15.4,0.6,1.9-8.5,8.7-8.4c6.7,0.1,14.7-9.7,14.6-11.5C-213.1-25.6-213.1-26.2-212.9-26.8L-212.9-26.8z M-167.4,17.8
	c1.5,6.5,2.5,12.1,3.7,17.7c-10.3,0.6-20.6,0.9-31,1.2c0.4-0.7,1.1-1.4,2-2c12.4-8.5-5.8-3.5-4.1-8.4c11-2.6,6.5-7.7,28.2-8.4
	C-168.2,17.9-167.8,17.8-167.4,17.8L-167.4,17.8z M-239.8,37c-5.6-0.1-11.2-0.2-16.8-0.3c0.2-0.2,0.4-0.4,0.6-0.6
	C-250.9,30.4-233.7,29.8-239.8,37L-239.8,37z M-174.6,48.9c6,2.4,7.1,4.7,8.4,7c3.4,0.6,6.6,1.6,9,3.5c1.2,0.9,2.3,1.9,3.3,2.9
	c1.4-0.1,2.8-0.4,4.3-0.8c-0.9-2.3-1.8-5.1-2.9-8.3c-1.3-3.8-6.6-4.7-10.3-4.6C-166.7,48.7-170.7,48.8-174.6,48.9L-174.6,48.9z
	 M-283,56.7c0.8-2.8,2.7-5.6,6.2-7.9c11.5,0.3,23.1,0.5,34.7,0.6c0.6,0.4,1.1,0.9,1.6,1.6c0.7,1,12.3-1.2,12.5,0.6
	c2.6,0.5,4.9,2.8,12.4,2.8c0,0,0.4,0.3,1.1,0.9h-10H-265C-272,55.4-277.9,55.8-283,56.7L-283,56.7z"/>
<path class="st5" d="M-231.4-2.5c4.7,0,9.4,0,14,0c1.1,0,2,0.9,2,2c0,4.6,0,9.1,0,13.7c0,2.6,0.5,2.4-1.9,2.4
	c-0.6,0-1.1,0.5-1.1,1.1c0,2.5,0,5,0,7.5c0,0.6,0.5,1.1,1.1,1.1c2.4,0,1.9-0.3,1.9,2.2c0,7.5,0,15.4,0,23.2c0,1.1-0.9,2-2,2
	c-4.7,0-9.4,0-14,0c-1.1,0-2-0.9-2-2c0-7.7,0-15.1,0-23c0-2.6-0.5-2.4,1.9-2.4c0.6,0,1.1-0.5,1.1-1.1c0-2.5,0-5,0-7.5
	c0-0.6-0.5-1.1-1.1-1.1c-2.4,0-1.9,0.3-1.9-2.2c0-4.6,0-9.3,0-13.9C-233.3-1.6-232.5-2.5-231.4-2.5L-231.4-2.5z"/>
<path class="st2" d="M-297.3,32c24.3,1.6,48.6,2.3,73,2.3c24.4,0,48.7-0.7,73-2.3c0.7,0,1.2,0.6,1.3,1.4c0.4,4.7,1,5.6,1.4,10.3
	c0.1,0.8-0.6,1.4-1.3,1.4c-24.8,1.1-49.6,1.6-74.4,1.6c-24.8,0-49.6-0.5-74.4-1.6c-0.7,0-1.3-0.6-1.3-1.4c0.4-4.7,1-5.6,1.4-10.3
	C-298.5,32.6-298,31.9-297.3,32L-297.3,32z"/>
<path class="st10" d="M-250.5,72.2c5.4,0,13.8,3.1,13.8,6.3c0,3.2-8.8,9.7-14.3,9.7c-5.4,0-28-12.8-28-16
	C-279,69-256,72.2-250.5,72.2L-250.5,72.2z"/>
<g>
	<ellipse class="st11" cx="155.1" cy="149.1" rx="16.6" ry="15.1"/>
	<ellipse class="st11" cx="145.4" cy="172.8" rx="18.9" ry="19"/>
	<ellipse class="st11" cx="166.9" cy="172.4" rx="18.9" ry="19"/>
</g>
<path class="st1" d="M141.9,196c-2.1,0-4.2-0.3-6.3-0.9c-6.9-2-12-6.9-14.2-13.6c-3.3-10.2,0.8-20.8,10-25.9c1.9-1,3-3.1,3-5.5
	c0-6.9,3.1-13.1,8.5-17.2c5.4-4.1,12.3-5.4,19.1-3.6c6.3,1.7,11.6,6.5,14,12.7c1.1,2.8,1.6,5.7,1.5,8.6c0,0,0,0,0,0
	c-0.1,2.1,1.1,4,3,5c9.2,5,13.3,15.7,10,25.9c-2.1,6.7-7.3,11.6-14.2,13.6c-5.9,1.7-11.9,1-17-2c-2.1-1.2-4.6-1.2-6.7,0
	C149.4,195,145.7,196,141.9,196z M156.1,135.6c-3.2,0-6.2,1-8.7,2.9c-3.6,2.7-5.7,6.9-5.7,11.4c0,5.1-2.6,9.6-6.7,11.9
	c-5.2,2.9-9.2,9.3-6.6,17.4c1.4,4.3,4.8,7.6,9.3,8.9c5.1,1.5,9,0.1,11.4-1.3c4.4-2.6,9.6-2.6,14,0c2.4,1.4,6.3,2.8,11.4,1.3
	c4.5-1.3,7.9-4.5,9.3-8.9c2.6-8-1.5-14.5-6.6-17.4c-4.3-2.4-6.8-6.8-6.7-11.5c0.1-1.9-0.3-3.9-1-5.8c-1.6-4.1-5.1-7.3-9.2-8.4
	C158.8,135.8,157.4,135.6,156.1,135.6z M174,150.5L174,150.5L174,150.5z"/>
<ellipse class="st11" cx="119.9" cy="140.4" rx="7.7" ry="12.4"/>
<ellipse class="st11" cx="141.6" cy="111.1" rx="9.8" ry="14.3"/>
<ellipse class="st11" cx="170.6" cy="111.1" rx="9.6" ry="13.9"/>
<ellipse class="st11" cx="193.2" cy="140.5" rx="9.6" ry="13.9"/>
<g>
	<g>
		<path class="st1" d="M120,157c-3.6,0-7-1.5-8.8-4.5l0,0c-3.6-5.7-4.4-12.6-2.2-19.4c1.9-5.8,5.4-10.2,8.1-11.9
			c1.7-1.1,3.9-0.6,5,1.1l10.5,16.6c1.6,2.5,1.9,5.7,0.8,8.8c-1,2.8-3.1,5.3-5.8,7C125.1,156.3,122.5,157,120,157z M117.3,148.7
			c0.9,1.4,3.7,1.7,6.4,0c1.3-0.9,2.4-2.1,2.8-3.3c0.2-0.6,0.5-1.6-0.1-2.5l-8.1-12.8c-1,1.4-1.9,3.2-2.6,5.3
			C114.7,138.7,114.1,143.7,117.3,148.7L117.3,148.7z"/>
	</g>
</g>
<g>
	<g>
		<path class="st1" d="M140.3,129.9c-2.4,0-4.8-0.5-6.8-1.5c-3.3-1.6-5.5-4.4-6.2-7.7l0,0c-3.4-17.1,10.9-29.7,19.3-31.4
			c0.9-0.2,1.9,0,2.7,0.5c0.8,0.5,1.3,1.4,1.5,2.3l4.6,22.9c1.3,6.4-4,13-11.7,14.5C142.6,129.8,141.4,129.9,140.3,129.9z
			 M144.6,97.9c-5.1,3.1-12.4,10.8-10.3,21.4l0,0c0.3,1.4,1.6,2.3,2.3,2.6c1.6,0.8,3.6,1,5.6,0.6c3.8-0.8,6.6-3.5,6.1-6L144.6,97.9z
			"/>
	</g>
</g>
<g>
	<g>
		<path class="st1" d="M171.8,129.9c-1.1,0-2.3-0.1-3.4-0.3c-3.6-0.7-6.8-2.5-9-5.1c-2.4-2.8-3.4-6.2-2.7-9.5l4.6-22.9
			c0.2-0.9,0.7-1.8,1.5-2.3c0.8-0.5,1.8-0.7,2.7-0.5c8.3,1.7,22.7,14.3,19.3,31.4l0,0c-0.7,3.2-2.9,6-6.2,7.7
			C176.5,129.4,174.2,129.9,171.8,129.9z M167.5,97.9l-3.7,18.6c-0.3,1.4,0.6,2.7,1.1,3.3c1.1,1.3,2.9,2.3,4.9,2.7
			c2,0.4,4.1,0.2,5.6-0.6c0.7-0.4,2-1.2,2.3-2.6l0,0C179.8,108.7,172.6,101,167.5,97.9z"/>
	</g>
</g>
<g>
	<g>
		<path class="st1" d="M192.1,157c-2.6,0-5.2-0.8-7.6-2.3c-5.9-3.7-8.1-10.8-5-15.7l10.5-16.6c1.1-1.7,3.3-2.1,5-1.1
			c6.2,3.9,13.9,18.5,5.9,31.3l0,0c-1.6,2.5-4.3,4.1-7.6,4.4C192.9,157,192.5,157,192.1,157z M193.7,130.1l-8.1,12.8
			c-0.9,1.4,0.1,4.1,2.8,5.8c1.3,0.9,2.9,1.3,4.2,1.1c0.6-0.1,1.7-0.3,2.2-1.1c0,0,0,0,0,0C199.3,141.6,196.5,134.1,193.7,130.1z"/>
	</g>
</g>
<path class="st1" d="M113,228.5h-6.1c-3.7,0-6.8-3-6.8-6.8v-7c0-3.7,3-6.8,6.8-6.8h6.1c3.7,0,6.8,3,6.8,6.8v7
	C119.8,225.5,116.7,228.5,113,228.5z"/>
<path class="st1" d="M113,252.6h-6.1c-3.7,0-6.8-3-6.8-6.8v-7c0-3.7,3-6.8,6.8-6.8h6.1c3.7,0,6.8,3,6.8,6.8v7
	C119.8,249.6,116.7,252.6,113,252.6z"/>
<path class="st1" d="M113,276.8h-6.1c-3.7,0-6.8-3-6.8-6.8v-7c0-3.7,3-6.8,6.8-6.8h6.1c3.7,0,6.8,3,6.8,6.8v7
	C119.8,273.8,116.7,276.8,113,276.8z"/>
<rect x="119.2" y="35.9" class="st12" width="73.6" height="32.5"/>
<rect x="-64" y="92.6" class="st12" width="32.4" height="49.7"/>
<path class="st0" d="M-71.5,34.7"/>
</svg>
