<?xml version="1.0" encoding="utf-8"?>
<!-- Generator: Adobe Illustrator 26.2.1, SVG Export Plug-In . SVG Version: 6.00 Build 0)  -->
<svg version="1.1" id="Layer_1" xmlns="http://www.w3.org/2000/svg" xmlns:xlink="http://www.w3.org/1999/xlink" x="0px" y="0px"
	 viewBox="0 0 4317 3719" style="enable-background:new 0 0 4317 3719;" xml:space="preserve">
<style type="text/css">
	.st0{fill:#809354;}
</style>
<g>
	<path d="M1099.1,1535.6V1400c0-35.3-28.6-64-64-64c-35.3,0-64,28.6-64,64v135.6c-228-28.9-409.2-210.1-438.1-438.1h135.6
		c35.3,0,64-28.6,64-64c0-35.3-28.6-64-64-64H533c28.9-228,210.1-409.2,438.1-438.1v135.6c0,35.3,28.6,64,64,64
		c35.3,0,64-28.6,64-64V531.5c228,28.9,409.2,210.1,438.1,438.1h-135.6c-35.3,0-64,28.6-64,64c0,35.3,28.7,64,64,64h135.6
		C1508.2,1325.5,1327,1506.7,1099.1,1535.6L1099.1,1535.6z M1035.1,399.5c-350.2,0-634.1,283.9-634.1,634.1
		c0,350.2,283.9,634.1,634.1,634.1c350.2,0,634.1-283.9,634.1-634.1C1669.1,683.4,1385.3,399.5,1035.1,399.5L1035.1,399.5z"/>
	<path d="M1035.1,975.4c32.1,0,58.2,26.1,58.2,58.2c0,32.1-26.1,58.2-58.2,58.2c-32.1,0-58.2-26.1-58.2-58.2
		C976.9,1001.4,1003,975.4,1035.1,975.4L1035.1,975.4z M941.4,929.9l-2.7,5.8l-168.2,360.5l352.6-156.4l5.6-2.5l3-5.4L1323,797
		L947.4,927.9L941.4,929.9L941.4,929.9z"/>
	
		<ellipse transform="matrix(9.242640e-02 -0.9957 0.9957 9.242640e-02 -71.584 3218.1731)" cx="1729.6" cy="1648.4" rx="226.5" ry="114.7"/>
	<path d="M3282,2826H1459.9c-6.6,0-12-5.4-12-12V1779.5c0-6.6,5.4-12,12-12H3282c6.6,0,12,5.4,12,12V2814
		C3294,2820.6,3288.6,2826,3282,2826z"/>
	<path d="M3256.9,2113.9h-967.9c-6.6,0-12-5.4-12-12v-963.5c0-6.6,5.4-12,12-12h967.9c6.6,0,12,5.4,12,12v963.5
		C3268.9,2108.5,3263.5,2113.9,3256.9,2113.9z"/>
	<path d="M3523.4,2876.4h-732.5c-6.6,0-12-5.4-12-12V1810.6c0-6.6,5.4-12,12-12h732.5c6.6,0,12,5.4,12,12v1053.8
		C3535.4,2871,3530,2876.4,3523.4,2876.4z"/>
	<path d="M1998.4,3082.2h-732.5c-6.6,0-12-5.4-12-12V2016.4c0-6.6,5.4-12,12-12h732.5c6.6,0,12,5.4,12,12v1053.8
		C2010.4,3076.8,2005,3082.2,1998.4,3082.2z"/>
	<path class="st0" d="M3461.9,2087c-90.5,169.7-218.4,371.4-383.6,603.2c10.5,12.6,17.9,27.2,20.9,43.1
		c12.2,61.8-48.2,120.3-134.7,136.3c-86.6,15.9-161.2-18.3-166.8-80.8c-0.2-2.7-0.2-5.5-0.2-8.3
		c-183.5-76.3-349.3-145.8-497.5-224.1c-220.2,104.5-450.4,201.4-690.4,247c-28.2,51.1-95.4,88.4-163.8,80.8
		c-80.6-8.8-127.4-76.3-104.6-139.8c14.7-41.8,53.9-72,99.4-86c104.8-229.9,203.3-462.4,295.5-696.8c-23.4-92.8-41.3-188.3-53.8-286
		c-49.9-13.3-69.3-77.7-43.7-138.4c26.3-62.2,84.8-99.6,130.5-90.7c45.8,9.1,66.8,63.5,47.1,128.1c-5.4,17.1-13.4,33-23.2,47.1
		c15.7,99.9,37.6,197.3,65.9,291.6c3.6,12.1,3,26.5-1.9,41c-82.1,242.6-170.8,484.2-266,723.9c250.8-41.6,490.2-144.7,717.9-255.8
		c23.6-11.5,47.8-12.7,65.3-3.4c152,81.4,323.4,155.6,514.2,240.5c12.4-5.8,25.8-10.2,39.8-13.3c150.1-214.5,271-409.4,362.7-580.4
		c-262.4-63.9-511.8-48.3-748.3-29.3c-19.8,23.8-46.8,42.6-76.5,51.2c-64.8,18.7-114.7-18.3-111.5-82.3
		c3.3-64,53.2-129.7,111.5-147.2c6-1.8,11.9-2.8,17.7-3.5c116-176.6,211.7-348.3,286.9-509c6.7-14.5,17.6-24.7,30.3-28.3
		c80.6-23.1,160.4-39.3,239.6-44.1c5.5-32.5,25.2-53.9,55.6-50.7c45.7,4.4,102.3,64.9,126.5,128.4c24.1,63.6,1.2,104.2-51.1,98.1
		c-30.8-3.7-63.5-22.7-88.4-50.4c-77.3,3.1-155.3,16.6-233.8,36.6c-71.1,146.7-160.1,304.1-266.9,468
		c252.1-17.8,520.2-27,804.2,75.2c23.4,8.4,46.8,27.6,62.2,49.9C3464.3,2050.6,3469.5,2072.8,3461.9,2087L3461.9,2087z
		 M4138.2,2975.6C3865,2372.8,3591.8,1770,3318.6,1167.3c-39.4-85.7-111.1-178.7-160-196.3c-456.1-168.1-912.1,316.6-1368.2,164.3
		c-35,260.8-202.4,480.3-432.1,588.3c-188.1,368-376.2,736-564.3,1104c-39.4,74.6,19.1,198,130.8,249.4
		c1027.5,476.2,2055.1-536.4,3082.6-60.2C4119.1,3068.3,4177.6,3061.5,4138.2,2975.6L4138.2,2975.6z"/>
</g>
</svg>
