<?xml version="1.0" encoding="utf-8"?>
<!-- Generator: Adobe Illustrator 26.2.1, SVG Export Plug-In . SVG Version: 6.00 Build 0)  -->
<svg version="1.1" id="Layer_1" xmlns="http://www.w3.org/2000/svg" xmlns:xlink="http://www.w3.org/1999/xlink" x="0px" y="0px"
	 viewBox="0 0 30 30" style="enable-background:new 0 0 30 30;" xml:space="preserve">
<path d="M22.8,3c-0.5,0-1,0.2-1.4,0.6L19,6l5,5l2.4-2.4c0.8-0.8,0.8-2,0-2.8l-2.2-2.2C23.9,3.2,23.3,3,22.8,3z M17,8L5.3,19.7
	c0,0,0.9-0.1,1.3,0.3s0.1,2.6,0.5,3s2.6,0.1,3,0.4s0.3,1.3,0.3,1.3L22,13L17,8z M4,23l-0.9,2.7C3,25.8,3,25.9,3,26c0,0.6,0.4,1,1,1
	c0.1,0,0.2,0,0.3-0.1c0,0,0,0,0,0l0,0c0,0,0,0,0,0L7,26l-1.5-1.5L4,23z"/>
</svg>
