<?xml version="1.0" encoding="utf-8"?>
<!-- Generator: Adobe Illustrator 26.2.1, SVG Export Plug-In . SVG Version: 6.00 Build 0)  -->
<svg version="1.1" id="Layer_1" xmlns="http://www.w3.org/2000/svg" xmlns:xlink="http://www.w3.org/1999/xlink" x="0px" y="0px"
	 viewBox="0 0 1196.3 1116.4" style="enable-background:new 0 0 1196.3 1116.4;" xml:space="preserve">
<style type="text/css">
	.st0{fill-rule:evenodd;clip-rule:evenodd;fill:#9EA791;}
	.st1{fill-rule:evenodd;clip-rule:evenodd;fill:#C6C6B0;}
	.st2{fill-rule:evenodd;clip-rule:evenodd;fill:#AAAD96;}
	.st3{fill-rule:evenodd;clip-rule:evenodd;fill:#DADAC5;}
	.st4{fill-rule:evenodd;clip-rule:evenodd;fill:#C1C7AC;}
	.st5{fill-rule:evenodd;clip-rule:evenodd;fill:#BC6957;}
	.st6{fill-rule:evenodd;clip-rule:evenodd;fill:#8E9683;}
	.st7{fill-rule:evenodd;clip-rule:evenodd;fill:#4C4C4C;}
	.st8{fill-rule:evenodd;clip-rule:evenodd;fill:#5F5F5F;}
</style>
<path class="st0" d="M529.1,399.5c-2.3,32.4-10.9,34.5-13.2,67c-1,13.3,3.9,38.3,15.5,44.2c30.3,15.4,62.2,16.1,92.6,16.3
	C592.3,484.4,560.7,442,529.1,399.5L529.1,399.5z M1023.8,399.5c2.3,32.4,10.9,34.5,13.2,67c1,13.3-3.9,38.3-15.5,44.2
	c-30.3,15.4-62.2,16.1-92.6,16.3C960.6,484.4,992.2,442,1023.8,399.5L1023.8,399.5z"/>
<path class="st1" d="M775.8,699.7c-139.5,0-252.6,99.4-252.6,221.9c0,9.5-0.6,119.2-0.3,129.7c0.9,30.7,9.5,60.7,63.1,60.7h189.8
	h189.8c53.6,0,62.2-30,63.1-60.7c0.3-10.5-0.3-120.2-0.3-129.7C1028.4,799.1,915.3,699.7,775.8,699.7L775.8,699.7z"/>
<path class="st2" d="M563.2,801.7c-10.9,14.9-19.9,31.1-26.5,48.1c28.1-0.8,56.1-7.8,73.7-28.9c-7.4-9-18.8,3.2-12.5-12.5
	C602.1,797.9,582.5,799,563.2,801.7L563.2,801.7z M524.8,896.7c-0.2,1.4-0.3,2.9-0.5,4.3c2.2,4.7,13.1,11.1,41.1,18.7
	c30.5,8.2,4.5,8.6,33.3,7.2c44.2-2.2,43-0.8,79.5,18.1c19.3,10,8.1-51.7,67.9,10.8c34.1,35.6,7.7,5.1,45,16.4
	c48.2,14.7,33.9,88.4,91.3,8.5c38.5-53.6-29.4-13.6-60.6-67.2c-9.5-16.3-49.8-61.9-65.8-35.3c-2.9,4.8-40.9,16.9-58.1,5
	c-17.7-12.2-79-18.1-37.3,6.9c14.1,8.5-10.1,8.2-10.6,8.1c-50.9-8.5-58.5,17.7-104.3-5C540.8,890.9,528.3,892.4,524.8,896.7
	L524.8,896.7z M523,967.8c-0.1,34.7-0.3,77.2-0.1,83.5c0.9,30.7,9.5,60.7,63.1,60.7h34.1c-3.2-16.3-7.3-29.5-7.5-29.6
	c-19.8-13-21.8-23-27.6-28.8c2.6-5.1-31.7-19.4-31.8-23.1c-0.7-21.6-34.3-23.1,23-35.1c34.6-7.2-14.1-37.2-37.9-31.2
	C532.7,965.7,527.6,966.8,523,967.8L523,967.8z M707.2,1112.1h68.6h94.5c-25.2-51.5-53.6-34.1-71-44.7
	c-58.5-35.5-55.4-14.2-88.8-26.5c-12.8,9.9,43.6,28-3.6,29c-20.9,0.5-19.9,22.1-3.1,38.8C704.9,1109.8,706.1,1110.9,707.2,1112.1
	L707.2,1112.1z M1028.8,1046.2c0.1-19.2-0.2-80.2-0.3-109.4c-23.3,14.8-25.4,4.1-36.4,8.8c-38.6,16.7-30.5,57.1-18.7,61.4
	c1.3,0.5,1,5,3.7,6.2C991.8,1019.7,1011.2,1032.8,1028.8,1046.2L1028.8,1046.2z M1020.4,866c-1-3.4-2.1-6.8-3.3-10.1
	C1013.6,860,1013,864.4,1020.4,866L1020.4,866z M998.1,816.1c-8.5-13.7-18.5-26.6-30-38.3c-41.8,2.5-85.3,8-87.6,66.4
	c-0.3,7.2,20.1,15.1,24.7,17.1c5.5,2.3,42.8-25.3,62.8-32.4C977.8,825.4,988.1,821.2,998.1,816.1L998.1,816.1z"/>
<path class="st3" d="M775.8,699.7c-78.8,0-149.1,31.7-195.5,81.4c23.7,118.2,34.4,237.1,25.2,331c0.6,0,1.1,0,1.7,0h0h0h0h0h0h168.4
	h175.7h0h0h0h0h0c0.6,0,1.2,0,1.7,0c-12.7-89.4-5.5-210,17.9-331C924.9,731.4,854.6,699.7,775.8,699.7L775.8,699.7z"/>
<path class="st4" d="M584,799.8c2.3,12.5,4.6,24.9,6.6,37.3c7.4-4.1,14.2-9.5,19.8-16.2c-7.4-9-18.8,3.2-12.5-12.5
	C600.5,801.9,593.9,799.8,584,799.8L584,799.8z M599.7,900.4c1.1,8.8,2.1,17.6,2.9,26.3c40.2-1.9,40.2,0,75.5,18.3
	c19.3,10,8.1-51.7,67.9,10.8c34.1,35.6,7.7,5.1,45,16.4c48.2,14.7,33.9,88.4,91.3,8.5c38.5-53.6-29.4-13.6-60.6-67.2
	c-9.5-16.3-49.8-61.9-65.8-35.3c-2.9,4.8-40.9,16.9-58.1,5c-17.7-12.2-79-18.1-37.3,6.9c14.1,8.5-10.1,8.2-10.6,8.1
	C626.8,894.5,612.6,897.8,599.7,900.4L599.7,900.4z M607.9,1079.1c-0.5,11.3-1.3,22.2-2.4,32.9c0.6,0,1.1,0,1.7,0h0h0h0h0h0h12.7
	c-3.2-16.3-7.3-29.5-7.5-29.6C610.9,1081.3,609.3,1080.2,607.9,1079.1L607.9,1079.1z M707.2,1112.1h68.6h94.5
	c-25.2-51.5-53.6-34.1-71-44.7c-58.5-35.5-55.4-14.2-88.8-26.5c-12.8,9.9,43.6,28-3.6,29c-20.9,0.5-19.9,22.1-3.1,38.8
	C704.9,1109.8,706.1,1110.9,707.2,1112.1L707.2,1112.1z M962.5,831.1c2.6-16.6,5.5-33.3,8.7-50.1c-1-1.1-2.1-2.2-3.1-3.3
	c-41.8,2.5-85.3,8-87.6,66.4c-0.3,7.2,20.1,15.1,24.7,17.1C910.2,863.4,941.9,840.5,962.5,831.1L962.5,831.1z"/>
<path class="st5" d="M648.7,362.1c3.1,14.1,4.9,29.7,4.9,46.1c0,61.8-24.7,111.9-55.1,111.9c-30.4,0-55.1-50.1-55.1-111.9
	C543.4,335.8,593.2,362.1,648.7,362.1L648.7,362.1z"/>
<path class="st5" d="M902,362.1c-3.1,14.1-4.9,29.7-4.9,46.1c0,61.8,24.7,111.9,55.1,111.9c30.4,0,55.1-50.1,55.1-111.9
	C1007.3,335.8,957.4,362.1,902,362.1L902,362.1z"/>
<path class="st5" d="M905.9,471.9c-4.3,82.4-8.5,164.8-12.8,247.2c-1.9,36.5-53.4,75.9-114.3,75.2c-59.5-0.6-118.2-40.7-120-75.4
	c-4.2-82.3-8.5-164.6-12.7-247C732.7,471.9,819.3,471.9,905.9,471.9L905.9,471.9z"/>
<path class="st5" d="M959,221.3c11.4,39.6,17.8,83.6,17.8,129.9c0,34.3-3.4,67.4-9.7,98.3c-11.4,56.1-24.3,116.7-52.4,154
	c-69,91.5-208.9,87-276.8-2.9c-27.5-36.4-41.1-92.5-52.7-147.1c-6.8-32.1-10.5-66.5-10.5-102.2c0-46.3,6.4-90.3,17.8-129.9H959
	L959,221.3z"/>
<path class="st6" d="M776.9,671.8c-52.5-0.8-105-24.5-139.2-69.9c-27.7-36.6-41.3-93-53-147.9c-6.9-32.2-10.6-66.8-10.6-102.8
	c0-2.1,0-4.2,0-6.3l8.3,2.5c2.6,19.4,5.1,38.8,7.7,58.3c18.5,52.4,25.8,101.6,38.8,137.3c8.9,24.3,33.3,49.2,60.1,48
	c57.5-2.5,118.2-2.5,175.7,0c26.8,1.2,51.2-23.7,60.1-48c13.1-35.7,20.3-84.9,38.8-137.3c2.6-19.4,5.1-38.8,7.7-58.3l8.3-2.5
	c0,2.1,0,4.2,0,6.3c0,36-3.7,70.6-10.6,102.8c-11.7,54.9-25.3,111.2-53,147.9C881.9,647.2,829.4,671,776.9,671.8L776.9,671.8z
	 M682.7,634.6c24.4,15.5,63.9,27,94.2,28.6c30.2-1.6,69.8-13.1,94.2-28.6C804.9,629.1,748.8,629.1,682.7,634.6L682.7,634.6z"/>
<path class="st7" d="M691.9,383.1c61.2,0,108,0,169.2,0c53.8,0,112.6-1,112.6,24.1c0,49.3-103.8,86.8-150.1,78.3
	c-16.9-3.1-25.8-15.1-35.4-23.2c-8-6.8-13.3-8.7-21.6-1.6c-0.6,0.5-1.2,1-1.8,1.6c-9.5,8.1-18.5,20.1-35.4,23.2
	c-46.3,8.5-150.1-29.1-150.1-78.3C579.2,382.1,638,383.1,691.9,383.1L691.9,383.1z"/>
<path class="st1" d="M776.5,384.3H634c-47.8,0-67.9,16.7-79.9,74.3c-15.9,75.8-40.5,56.6-42.4-5.5c-0.7-24.3,5.6-56.9,12.1-77.2
	c5.5-17.2,12.9-23.8,16.3-38.4c8.3-35.4,12.5-66.1,22.7-106.8c23.4-93.6,76-161.1,213.6-160.7c137.6-0.3,190.2,67.1,213.6,160.7
	c10.2,40.8,14.4,71.4,22.7,106.8c3.4,14.6,10.8,21.2,16.3,38.4c6.5,20.3,12.9,52.9,12.1,77.2c-1.9,62.1-26.5,81.3-42.4,5.5
	c-12.1-57.6-32.2-74.3-79.9-74.3H776.5L776.5,384.3z"/>
<path class="st2" d="M776.5,384.3H634c-17.5,0-31.3,2.2-42.3,7.9c-3.3-14.1,0.6-34.2,23.4-47c13.7-7.7,14.9,12.7,61.9-38.3
	c16.6-18.1,73.8-19.7,48.8,5.3c-41.4,41.4-12.4,24.3,0,41.9c2.2,3.1,38.7-3.8,39.3,1.9c8,1.7,15.3,8.9,38.9,8.9
	c0.2,0,10.1,8.1,21.2,19.3H776.5L776.5,384.3z M559.7,243.6c1-4.2,2-8.5,3.1-12.9c4.5-18.1,10.1-35.2,17.2-51l3.3-0.5
	c5.5-0.9,53.8-55.4,58-35.2c3.4,16.5,6.2,0.1,17.3,3.6c-4.6,40.2-44.9,67.4-79.7,84C573.4,234.2,566.7,238.6,559.7,243.6
	L559.7,243.6z M925.7,114.7c18.3,15.6,32.3,34.7,43.1,56.4c-10.7,36.1-36.8-7.7-76.2,3.8c-37.4,10.9,1.4,22-46.7,10.9
	c-84.3-19.4-41.1,26-62.7,28.2c-40.8,4.2-40.6,2.4-76.4,28.4c-23.3,17-1.8,2.4-31.8,12.2c-71.7,23.5-42.2-9.8-30.9-11.2
	c50.8-6.2,42.8-32.2,90-53c0.4-0.2,20.8-13.2,4.4-12.6c-48.5,1.9,5.9-26.7,27.4-26.2c20.9,0.4,46.1-30.5,45.8-36.1
	c-1.2-31,57.5-15,74.4-6.6C900.9,116.4,914.2,116.8,925.7,114.7L925.7,114.7z M991.4,236.1c9.2,38.1,13.4,67.6,21.4,101.4
	c3.4,14.6,10.8,21.2,16.3,38.4c0.5,1.4,0.9,2.9,1.4,4.4c-19.2,8.1-38.1,11.9-49.7,6.9c-38.6-16.7-1.1-32.9-86.3-50.4
	c-23.2-4.8-35.9-22.2-18.7-34.1c38.9-26.8-18.2-10.9-12.9-26.2c34.7-8,20.4-24.1,88.8-26.5C964.1,249.6,974.2,238.3,991.4,236.1
	L991.4,236.1z"/>
<path class="st3" d="M586,305.3c4.1-20.3,7.6-40.3,13.7-64.6c19.4-77.5,62.9-133.3,176.8-133.1c113.9-0.3,157.5,55.6,176.8,133.1
	c6.1,24.4,9.6,44.4,13.7,64.6c-63.3,3.4-126.8,4.9-190.5,4.8C712.8,310.2,649.3,308.7,586,305.3L586,305.3z M550,360.9
	c3.7-10.4,15.1-15,26.2-14.7c65.8,2.1,133.3,3.1,200,3c64.5,0.1,127.9-0.8,193.7-2.8c11.7-0.4,28.3,2.4,32.5,14.5
	c37.3,107.5,28.7,53.1-14.7,19.4c-20.2-15.7-56.4-12.8-84-12.4H776.2H648.7c-45.1,0-77,4.7-97.2,22C532.7,406,523.2,437.4,550,360.9
	L550,360.9z"/>
<path class="st4" d="M606.9,216.1c8.8-25.1,21-47.2,38.8-64.7c2.6-0.9,6.3-5.9,12.9-3.8C655.2,177.1,632.5,199.6,606.9,216.1
	L606.9,216.1z M812.5,109.7c57.4,7,92.7,31.7,115.1,67.3c-10.1-3.5-21.8-5.8-34.9-2c-37.4,10.9,1.4,22-46.7,10.9
	c-84.3-19.4-41.1,26-62.7,28.2c-40.8,4.2-40.6,2.4-76.4,28.4c-23.3,17-1.8,2.4-31.8,12.2c-71.7,23.5-42.2-9.8-30.9-11.2
	c50.8-6.2,42.8-32.2,90-53c0.4-0.2,20.8-13.2,4.4-12.6c-48.5,1.9,5.9-26.7,27.4-26.2c20.9,0.4,46.1-30.5,45.8-36.1
	C811.8,113.4,812,111.4,812.5,109.7L812.5,109.7z M955.4,249.6c4.8,20.5,8,38,11.5,55.8c-32.4,1.7-64.9,3-97.3,3.8
	c1.3-2.2,3.3-4.3,6.2-6.3c38.9-26.8-18.2-10.9-12.9-26.2c34.7-8,20.4-24.1,88.8-26.5C952.9,250,954.2,249.8,955.4,249.6L955.4,249.6
	z M727.9,309.9c-17.6-0.2-35.2-0.5-52.7-1c0.6-0.7,1.2-1.3,1.8-2C693,289.4,747.2,287.3,727.9,309.9L727.9,309.9z M933,347.4
	c19,7.4,22.3,14.7,26.5,21.9c10.8,1.8,20.7,5,28.3,10.9c3.7,2.9,7.2,5.9,10.4,9c4.3-0.4,8.8-1.2,13.5-2.4
	c-2.7-7.3-5.7-15.9-9.2-25.9c-4.2-12.1-20.8-14.8-32.5-14.5C957.5,346.8,945.2,347.1,933,347.4L933,347.4z M592.3,372.1
	c2.6-8.8,8.4-17.7,19.4-24.8c36.1,0.9,72.6,1.5,109,1.8c1.8,1.3,3.6,2.9,5.1,5c2.2,3.1,38.7-3.8,39.3,1.9c8,1.7,15.3,8.9,38.9,8.9
	c0.1,0,1.4,1,3.6,2.9h-31.3H648.7C626.8,367.9,608.1,369,592.3,372.1L592.3,372.1z"/>
<path class="st0" d="M593.1,853.3l111-87l15.7,20.3l-122.9,95.5L593.1,853.3L593.1,853.3z M959.1,853.3l-111-87l-15.7,20.3
	l122.9,95.5L959.1,853.3L959.1,853.3z"/>
<path class="st1" d="M648,659.4c-1.3,15.2-4.3,54.5-3.5,68.1c12.6,55.4,88.5,66.7,131.4,67.3c-10.4-73.4-42.2-91.3-107.5-133.8
	C661.6,656.5,649,647.4,648,659.4L648,659.4z"/>
<path class="st1" d="M903.9,659.4c1.3,15.2,4.3,54.5,3.5,68.1c-12.6,55.4-88.5,66.7-131.4,67.3c10.4-73.4,42.2-91.3,107.5-133.8
	C890.3,656.5,902.9,647.4,903.9,659.4L903.9,659.4z"/>
<path class="st7" d="M754.4,185.8c14.7,0,29.4,0,44.1,0c3.4,0,6.2,2.8,6.2,6.2c0,14.3,0,28.7,0,43c0,8.3,1.7,7.6-6,7.6
	c-1.8,0-3.3,1.5-3.3,3.3c0,7.9,0,15.7,0,23.6c0,1.8,1.5,3.3,3.3,3.3c7.5,0,6-0.9,6,6.9c0,23.7,0,48.5,0,72.8c0,3.4-2.8,6.2-6.2,6.2
	c-14.7,0-29.4,0-44.1,0c-3.4,0-6.2-2.8-6.2-6.2c0-24.1,0-47.6,0-72.3c0-8.2-1.7-7.5,6-7.5c1.8,0,3.3-1.5,3.3-3.3
	c0-7.9,0-15.7,0-23.6c0-1.8-1.5-3.3-3.3-3.3c-7.5,0-6,0.9-6-6.9c0-14.6,0-29.1,0-43.7C748.2,188.6,751,185.8,754.4,185.8
	L754.4,185.8z"/>
<path class="st0" d="M547.1,294.3c76.2,5,152.6,7.2,229.3,7.1c76.7,0.1,153.1-2.1,229.3-7.1c2.2-0.1,3.7,2,3.9,4.5
	c1.2,14.9,3.2,17.5,4.5,32.4c0.2,2.4-1.8,4.4-3.9,4.5c-77.9,3.5-155.9,5-233.8,4.9c-77.9,0.1-155.9-1.5-233.8-4.9
	c-2.2-0.1-4.1-2-3.9-4.5c1.2-14.9,3.2-17.5,4.5-32.4C543.4,296.3,545,294.1,547.1,294.3L547.1,294.3z"/>
<path class="st0" d="M608.1,1003.6h339.2c-0.1,9.8-0.1,19.5,0.1,29H608.8C608.7,1023.1,608.5,1013.5,608.1,1003.6L608.1,1003.6z
	 M605.1,953.3c0.8,9.8,1.5,19.5,2,29h340.6c0.3-9.5,0.8-19.2,1.4-29H605.1L605.1,953.3z"/>
<path class="st8" d="M694.2,420.5c17.1,0,43.4,9.6,43.4,19.7c0,10.1-27.7,30.6-44.8,30.6c-17.1,0-87.9-40.2-87.9-50.3
	C604.9,410.5,677.1,420.5,694.2,420.5L694.2,420.5z"/>
</svg>
