<?xml version="1.0" encoding="utf-8"?>
<!-- Generator: Adobe Illustrator 26.2.1, SVG Export Plug-In . SVG Version: 6.00 Build 0)  -->
<svg version="1.1" xmlns="http://www.w3.org/2000/svg" xmlns:xlink="http://www.w3.org/1999/xlink" x="0px" y="0px"
	 viewBox="0 0 1280 1280" style="enable-background:new 0 0 1280 1280;" xml:space="preserve">
<style type="text/css">
	.st0{fill:#0E0F0D;}
</style>
<g id="Layer_1">
</g>
<g id="Layer_2">
	<path class="st0" d="M1080.2,582.9l-109.9-25.8c-7-24.6-16.5-48.1-28.3-70.1l60-98c4.5-7.3,3.4-16.8-2.5-22.9l-73.1-75
		c-5.9-6.1-15.2-7.2-22.3-2.6l-95.4,61.6c-21.4-12.1-44.3-21.9-68.3-29l-25.1-112.9c-1.9-8.4-9.2-14.4-17.6-14.4H594.3
		c-8.4,0-15.7,6-17.6,14.4l-25.1,112.9c-24,7.1-46.9,16.9-68.3,29l-95.4-61.6c-7.1-4.6-16.4-3.5-22.3,2.6l-73.1,75
		c-5.9,6.1-7,15.6-2.5,22.9l60,98c-11.8,22-21.3,45.5-28.3,70.1l-109.9,25.8c-8.2,1.9-14,9.4-14,18v106.1c0,8.6,5.8,16.1,14,18
		l109.9,25.8c7,24.6,16.5,48.1,28.3,70.1l-60,98c-4.5,7.3-3.4,16.8,2.5,22.9l73.1,75c5.9,6.1,15.2,7.2,22.3,2.6l95.4-61.6
		c21.4,12.1,44.3,21.9,68.3,29l25.1,112.9c1.9,8.4,9.2,14.4,17.6,14.4h103.4c8.4,0,15.7-6,17.6-14.4l25.1-112.9
		c24-7.1,46.9-16.9,68.3-29l95.4,61.6c7.1,4.6,16.4,3.5,22.3-2.6l73.1-75c5.9-6.1,7-15.6,2.5-22.9l-60-98
		c11.8-22,21.3-45.5,28.3-70.1l109.9-25.8c8.2-1.9,14-9.4,14-18V600.9C1094.2,592.3,1088.4,584.8,1080.2,582.9z M646,865.5
		c-113.7,0-205.9-94.7-205.9-211.5c0-116.8,92.2-211.5,205.9-211.5c113.7,0,205.9,94.7,205.9,211.5
		C851.9,770.8,759.7,865.5,646,865.5z"/>
</g>
</svg>
